<svg xmlns="http://www.w3.org/2000/svg" xmlns:xlink="http://www.w3.org/1999/xlink" viewBox="0 0 143 117.59"><defs><style>.cls-1{isolation:isolate;}.cls-2{fill:#29b574;}.cls-3{fill:#24a367;}.cls-4{fill:#049289;}.cls-5,.cls-6{mix-blend-mode:multiply;}.cls-5{fill:url(#linear-gradient);}.cls-6{opacity:0.6;fill:url(#linear-gradient-2);}</style><linearGradient id="linear-gradient" x1="66.39" y1="48.1" x2="84.62" y2="62.34" gradientUnits="userSpaceOnUse"><stop offset="0" stop-color="#01605a"/><stop offset="0.01" stop-color="#01645d" stop-opacity="0.95"/><stop offset="0.1" stop-color="#017871" stop-opacity="0.66"/><stop offset="0.19" stop-color="#008a81" stop-opacity="0.41"/><stop offset="0.3" stop-color="#00978d" stop-opacity="0.23"/><stop offset="0.43" stop-color="#00a096" stop-opacity="0.1"/><stop offset="0.6" stop-color="#00a59b" stop-opacity="0.02"/><stop offset="1" stop-color="#00a79c" stop-opacity="0"/></linearGradient><linearGradient id="linear-gradient-2" x1="24.08" y1="65.3" x2="33.21" y2="81.11" gradientUnits="userSpaceOnUse"><stop offset="0" stop-color="#00a79c" stop-opacity="0"/><stop offset="0.22" stop-color="#00a499" stop-opacity="0.04"/><stop offset="0.42" stop-color="#009c92" stop-opacity="0.15"/><stop offset="0.61" stop-color="#008e85" stop-opacity="0.35"/><stop offset="0.8" stop-color="#017b73" stop-opacity="0.62"/><stop offset="0.99" stop-color="#01625c" stop-opacity="0.97"/><stop offset="1" stop-color="#01605a"/></linearGradient></defs><title>WW-Logo</title><g class="cls-1"><g id="Layer_1" data-name="Layer 1"><path class="cls-2" d="M113.73,14.13a96.28,96.28,0,0,0-25,19.75c-1.79,2-3.53,4-5.18,6.17-1.42,1.82-2.77,3.69-4.08,5.58l-.63.91-1.34,2,.15-9.47a9.33,9.33,0,0,0,0-1l0-.4q0-.12,0-.21l0-.19c0-.28-.1-.57-.16-.85a9.42,9.42,0,0,0-1.48-3.22,9.57,9.57,0,0,0-5.59-3.76,9,9,0,0,0-1.57-.23,9.44,9.44,0,0,0-5.18,1.11,9.66,9.66,0,0,0-2.71,2.2c-.19.22-.35.43-.51.65l-.26.38-.27.4-4.25,6.39c-2.81,4.29-5.59,8.58-8.32,12.91q-6.9,10.94-13.45,22.09L33.59,63l-.14-15.37v-1.2c0-.08,0-.12,0-.34a5.07,5.07,0,0,0-.14-.92,4.79,4.79,0,0,0-5.35-3.62,4.34,4.34,0,0,0-1.58.57,4.65,4.65,0,0,0-.66.48l-.36.36a43.31,43.31,0,0,0-5.05,6,42.14,42.14,0,0,0,7-3.11s.81-.48,1.15-.21.15.63.14.76c-.28,2.92-1.81,16.38-1.81,16.38L25,78.14,24.6,82l-.11,1-.06.47v.13a.63.63,0,0,0,0,.2c0,.25,0,.52,0,.74a7.42,7.42,0,0,0,2.32,4.84,7.63,7.63,0,0,0,10.13.26,7.48,7.48,0,0,0,1-1c.14-.17.27-.34.4-.52l.16-.21.58-.77,1.15-1.54q9.31-12.24,18.17-24.8c1.52-2.15,3-4.3,4.5-6.47.42-.6.84-1.2,1.25-1.81l0,2,.18,7.68a10.62,10.62,0,0,0,.13,1.5,9.45,9.45,0,0,0,.42,1.6,8.81,8.81,0,0,0,1.74,2.91,9.12,9.12,0,0,0,5.59,3,8.92,8.92,0,0,0,6.28-1.51,8.81,8.81,0,0,0,2.29-2.31c.15-.21.27-.42.4-.64l.06-.11,0,0,.06-.11.23-.43,2.37-4.6c1.56-3,3.08-5.9,4.69-8.75a126.36,126.36,0,0,1,7.94-12.33,105.93,105.93,0,0,1,20.6-21,132,132,0,0,1,12.45-8.52c4.34-2.63,8.84-5.07,13.46-7.39A107.38,107.38,0,0,0,113.73,14.13Z"/><path class="cls-3" d="M143,3.35c-4.62,2.32-9.12,4.76-13.46,7.39a132,132,0,0,0-12.45,8.52,105.93,105.93,0,0,0-20.6,21,126.36,126.36,0,0,0-7.94,12.33C86.94,55.46,82.29,64.4,81.49,66l-.31.59-.06.11c-.13.22-.25.43-.4.64a8.81,8.81,0,0,1-2.29,2.31,8.92,8.92,0,0,1-6.28,1.51,9.12,9.12,0,0,1-5.59-3,8.81,8.81,0,0,1-1.74-2.91,9.45,9.45,0,0,1-.42-1.6,10.62,10.62,0,0,1-.13-1.5l-.18-7.68,0-2c-.41.61-.83,1.21-1.25,1.81L74.62,37.57a4,4,0,0,1,1.79-1.42c.76-.27,1.06.93,1.1,1.21l0,.19q0,.09,0,.21l0,.4a9.33,9.33,0,0,1,0,1l-.15,9.47,1.34-2,.63-.91c1.31-1.89,2.66-3.76,4.08-5.58,1.65-2.12,3.39-4.17,5.18-6.17a96.28,96.28,0,0,1,25-19.75A107.38,107.38,0,0,1,143,3.35Z"/><path class="cls-4" d="M108.22,26.52,102.42,32a51.18,51.18,0,0,1-36.66,77.72,2,2,0,0,1-.24,0l-.19,7.89.23,0a59,59,0,0,0,42.66-91ZM98,14.73A58.46,58.46,0,0,0,60.43,0c-.5,0-1,0-1.48,0h0A58.62,58.62,0,0,0,18.46,16.12l5.92,5.16A51,51,0,0,1,58.94,7.81h1.29a51,51,0,0,1,32,12.28Zm-48,94.59A51.17,51.17,0,0,1,14.6,33.48l-6-5.23a59,59,0,0,0,41.1,89l.24,0,.2-7.88Z"/><path class="cls-4" d="M50.15,109.36l-.2,7.88-.24,0,.2-7.89Z"/><path class="cls-4" d="M65.52,109.7a2,2,0,0,0,.24,0l-.2,7.9-.23,0Z"/><path class="cls-5" d="M84,61.08l-2.91,5.58c-.13.22-.25.43-.4.64a8.81,8.81,0,0,1-2.29,2.31,8.92,8.92,0,0,1-6.28,1.51,9.12,9.12,0,0,1-5.59-3,8.81,8.81,0,0,1-1.74-2.91,9.45,9.45,0,0,1-.42-1.6,10.62,10.62,0,0,1-.13-1.5l-.18-7.68,0-2,10.56-14.9s2.32-3.07,2.89-.21l0,.19q0,.09,0,.21l0,.4a9.33,9.33,0,0,1,0,1l-.15,9.47C77.52,49,84,61.08,84,61.08Z"/><path class="cls-6" d="M33.76,75.43l-5.53,7.75s-4,5.56-3.63-1.21l2.06-18.16,6.94-.14Z"/></g></g></svg>